<svg id="Layer_1" enable-background="new 0 0 512.001 512.001" height="512" viewBox="0 0 512.001 512.001" width="512" xmlns="http://www.w3.org/2000/svg"><g><path d="m248.002 448.001c-4.418 0-8-3.582-8-8v-104c0-4.418 3.582-8 8-8s8 3.582 8 8v104c0 4.419-3.582 8-8 8z" fill="#d2d2fc"/><path d="m384.002 80.001c0 29.37-19.86 54.88-48.29 62.05-4.521 1.112-8.873-1.759-9.79-6.1-4.52-21.34-9.41-39.26-11.91-47.95h-50.01c-4.42 0-8-3.58-8-8 0-35.29 28.71-64 64-64s64 28.71 64 64z" fill="#f1cc76"/><path d="m308.002 17.146c29.571 5.635 52 31.668 52 62.855 0 24.117-13.398 45.623-33.93 56.517 1.177 4.066 5.353 6.588 9.64 5.533 28.43-7.17 48.29-32.68 48.29-62.05 0-39.916-36.403-70.4-76-62.855z" fill="#ebb15d"/><path d="m352.002 216.001c0 68.94-47.28 92.59-75.53 106.71-8.15 4.08-20.47 10.23-20.47 13.29 0 4.42-3.58 8-8 8s-8-3.58-8-8c0-3.06-12.32-9.21-20.47-13.29-28.25-14.12-75.53-37.77-75.53-106.71 0-16.78 1.95-36.68 5.78-59.15.51-2.95 2.62-5.37 5.47-6.27l30.88-9.81c22.99-7.3 48.14-6.83 70.81 1.31 17.285 6.198 36.486 6.755 54 1.88l22.89-6.4c4.48-1.251 9.12 1.582 10 6.19 5.42 27.92 8.17 52.23 8.17 72.25z" fill="#e48c9b"/><path d="m352.002 216.001c0 68.94-47.28 92.59-75.53 106.71-8.15 4.08-20.47 10.23-20.47 13.29 0 4.42-3.58 8-8 8s-8-3.58-8-8c0-2.09-5.75-5.63-12-8.95 26.823-14.337 84-35.04 84-111.05 0-19.59-2.63-43.28-7.82-70.44 5.035-.994 6.754-1.598 29.65-8 4.48-1.25 9.12 1.58 10 6.19 5.42 27.92 8.17 52.23 8.17 72.25z" fill="#cc5b6f"/><path d="m338.132 152.981c-23.218 6.481-33.46 10.24-51.24 10.24-28.49 0-34.04-8.442-56.43-11.01-13.38-1.54-26.66-.26-39.49 3.81l-30.88 9.8c-5.589 1.839-11.328-3.004-10.31-8.96 7.1-41.7 18.11-77.7 18.57-79.21 1.04-3.36 4.14-5.65 7.65-5.65h144c3.51 0 6.61 2.29 7.65 5.65 4.651 15.039 11.464 41.744 16.18 66.09.8 4.09-1.68 8.11-5.7 9.24z" fill="#edebfd"/><path d="m338.132 152.981c-23.22 6.48-33.46 10.24-51.24 10.24-8.46 0-14.89-.74-20.34-1.86 8.82-1.72 17.97-4.58 31.58-8.38 4.02-1.13 6.5-5.15 5.7-9.24-4.72-24.35-11.53-51.05-16.18-66.09-1.04-3.36-4.14-5.65-7.65-5.65h40c3.51 0 6.61 2.29 7.65 5.65 4.65 15.04 11.46 41.74 16.18 66.09.8 4.09-1.68 8.11-5.7 9.24z" fill="#d2d2fc"/><path d="m328.002 512.001h-160c-8.411 0-11.105-11.397-3.58-15.16 31.012-15.435 56.681-36.021 77.33-61.84 3.197-3.997 9.301-3.999 12.5 0 20.626 25.79 46.284 46.388 77.33 61.84 7.523 3.762 4.833 15.16-3.58 15.16z" fill="#edebfd"/><path d="m328.002 512.001h-36c8.41 0 11.1-11.4 3.58-15.16-25.41-12.64-47.2-28.74-65.58-48.3 4.08-4.34 8-8.85 11.75-13.54 3.2-4 9.3-4 12.5 0 20.63 25.79 46.28 46.39 77.33 61.84 7.52 3.76 4.83 15.16-3.58 15.16z" fill="#d2d2fc"/><path d="m247.996 216.003c-3.553 0-6.797-2.384-7.735-5.982l-42.012-161.045c-2.955-11.328-11.846-20.128-23.203-22.967l-40.985-10.246c-4.286-1.072-6.892-5.415-5.821-9.702 1.072-4.286 5.416-6.891 9.702-5.821l40.985 10.246c17.035 4.259 30.372 17.46 34.804 34.451l42.012 161.045c1.322 5.067-2.509 10.021-7.747 10.021z" fill="#ebb19c"/><g fill="#cc5b6f"><circle cx="296.002" cy="192.001" r="8"/><circle cx="272.002" cy="232.001" r="8"/></g></g></svg>