<?xml version="1.0" encoding="iso-8859-1"?>
<!-- Generator: Adobe Illustrator 19.0.0, SVG Export Plug-In . SVG Version: 6.00 Build 0)  -->
<svg version="1.1" id="Capa_1" xmlns="http://www.w3.org/2000/svg" xmlns:xlink="http://www.w3.org/1999/xlink" x="0px" y="0px"
	 viewBox="0 0 512 512" style="enable-background:new 0 0 512 512;" xml:space="preserve">
<path style="fill:#D6E5E2;" d="M261.153,461.806c0-14.575,4.019-54.089,7.883-88.715c-0.705,0.199-1.403,0.391-2.083,0.569
	c-12.429,3.268-25.514,3.268-37.942,0c-0.68-0.179-1.378-0.371-2.084-0.57c3.865,34.638,7.884,74.169,7.884,88.753v0.066
	c0,5.393-3.124,10.297-8.011,12.577l-53.173,24.81c-2.676,1.248-1.786,5.26,1.167,5.26h146.459c2.949,0,3.845-4.002,1.176-5.255
	c-14.719-6.915-40.244-18.892-53.231-24.902C264.291,472.129,261.153,467.214,261.153,461.806L261.153,461.806z"/>
<path style="fill:#E5F9F6;" d="M323.279,177.035c-1.247-41.776,10.194-76.973,15.906-91.78c1.395-3.616-1.268-7.502-5.143-7.502
	h-172.12c-3.876,0-6.538,3.886-5.143,7.502c5.713,14.807,17.153,50.004,15.906,91.78c-1.655,55.432-44.583,122.448-9.467,167.125
	c21.37,27.189,48.124,38.445,65.793,43.09c12.429,3.268,25.514,3.268,37.942,0c17.669-4.645,44.423-15.901,65.793-43.09
	C367.862,299.483,324.934,232.468,323.279,177.035z"/>
<path style="fill:#D7E0DC;" d="M323.279,177.035c-1.247-41.776,10.194-76.973,15.906-91.78c1.395-3.616-1.268-7.502-5.143-7.502
	h-47.019c0,0-20.684,43.85-19.029,99.282s44.583,122.448,9.467,167.125c-18.113,23.045-40.088,34.637-57.126,40.466
	c3.068,1.05,5.979,1.915,8.676,2.624c12.429,3.268,25.514,3.268,37.942,0c17.669-4.645,44.423-15.901,65.793-43.09
	C367.862,299.483,324.934,232.468,323.279,177.035z"/>
<path style="fill:#FED130;" d="M165.764,114.182c4.166,17.038,7.638,38.855,6.922,62.853
	c-1.655,55.432-44.583,122.448-9.467,167.125c21.37,27.189,48.124,38.445,65.793,43.09c12.429,3.268,25.514,3.268,37.942,0
	c17.669-4.645,44.423-15.901,65.793-43.09c35.115-44.677-7.813-111.692-9.467-167.125c-0.716-23.998,2.755-45.815,6.922-62.853
	C330.202,114.182,165.764,114.182,165.764,114.182z"/>
<path style="fill:#77D057;" d="M188.718,32.193c-24.314-17.102-66.875-16.539-80.904-15.83c-2.649,0.134-4.736,2.29-4.784,4.942
	c-0.254,14.045,0.563,56.601,18.444,80.348c40.086,53.236,84.483,14.508,84.483,14.508S243.225,70.532,188.718,32.193z"/>
<circle style="fill:#FC502A;" cx="208.28" cy="80.68" r="33.491"/>
<path style="fill:#FF644A;" d="M359.936,7.452l-88.314,4.973c-2.004,0.113-2.819,2.622-1.273,3.903
	c40.057,33.213,86.163,58.361,135.774,74.057c1.914,0.605,3.582-1.438,2.592-3.184l-43.633-76.943
	C364.039,8.421,362.045,7.333,359.936,7.452z"/>
<path style="fill:#E52D15;" d="M408.714,87.201l-43.633-76.943c-1.042-1.837-3.036-2.925-5.145-2.806l-17.968,1.012
	c-15.382,0.866-24.502,17.587-16.903,30.989l12.479,22.006c21.874,11.702,44.818,21.41,68.579,28.928
	C408.036,90.991,409.704,88.946,408.714,87.201z"/>
<path style="fill:#EDBA18;" d="M345.619,286.263c-0.415-3.541-0.96-7.12-1.606-10.728c-0.484-2.706-1.026-5.429-1.611-8.164
	c-1.171-5.471-2.521-10.994-3.95-16.541c-0.476-1.849-0.961-3.701-1.452-5.554c-0.981-3.707-1.982-7.42-2.976-11.131
	c-0.497-1.856-0.991-3.711-1.48-5.565s-0.972-3.706-1.446-5.556c-0.474-1.85-0.938-3.697-1.39-5.541
	c-3.386-13.828-6.041-27.456-6.429-40.448c-0.042-1.413-0.067-2.817-0.081-4.214c-0.004-0.453-0.002-0.902-0.003-1.354
	c-0.003-0.943-0.004-1.883,0.004-2.818c0.005-0.527,0.015-1.05,0.024-1.575c0.014-0.86,0.032-1.717,0.056-2.569
	c0.015-0.536,0.033-1.069,0.052-1.602c0.03-0.846,0.065-1.687,0.104-2.525c0.024-0.513,0.048-1.025,0.076-1.535
	c0.047-0.88,0.101-1.754,0.158-2.626c0.03-0.451,0.057-0.903,0.089-1.352c0.074-1.031,0.156-2.053,0.242-3.07
	c0.023-0.276,0.043-0.555,0.068-0.831c0.118-1.33,0.245-2.649,0.383-3.955c0-0.002,0-0.004,0.001-0.007
	c0.135-1.281,0.281-2.547,0.434-3.804c0.035-0.288,0.073-0.571,0.109-0.857c0.123-0.979,0.249-1.952,0.382-2.915
	c0.045-0.329,0.093-0.654,0.139-0.981c0.132-0.928,0.267-1.849,0.408-2.762c0.047-0.309,0.095-0.616,0.144-0.923
	c0.15-0.954,0.305-1.899,0.464-2.835c0.041-0.241,0.081-0.482,0.122-0.722c0.185-1.075,0.376-2.138,0.571-3.188
	c0.016-0.087,0.032-0.176,0.048-0.263c0.897-4.793,1.89-9.326,2.927-13.567c0,0,0-0.001,0-0.002h-55.287
	c-4.166,17.037-7.636,38.858-6.919,62.853c1.655,55.432,44.583,122.448,9.467,167.125c-18.113,23.045-40.088,34.637-57.126,40.466
	c0.004,0.001,0.007,0.002,0.011,0.004c0.712,0.244,1.414,0.475,2.108,0.699c0.145,0.047,0.289,0.092,0.433,0.138
	c0.551,0.176,1.096,0.345,1.634,0.509c0.184,0.056,0.368,0.112,0.551,0.166c0.507,0.151,1.006,0.297,1.501,0.438
	c0.176,0.05,0.353,0.102,0.527,0.151c0.646,0.181,1.285,0.356,1.909,0.52c1.554,0.408,3.117,0.766,4.689,1.072
	c1.572,0.306,3.151,0.562,4.735,0.766c9.506,1.225,19.197,0.613,28.518-1.838c1.104-0.29,2.244-0.606,3.416-0.951
	c1.319-0.387,2.682-0.815,4.077-1.277c7.667-2.539,16.401-6.255,25.373-11.68c0.552-0.334,1.105-0.675,1.66-1.022
	c0.884-0.554,1.77-1.125,2.657-1.713c0.795-0.527,1.59-1.067,2.385-1.623c2.416-1.686,4.834-3.497,7.238-5.457
	c6.54-5.334,12.976-11.72,18.987-19.367c2.743-3.49,5.01-7.117,6.858-10.864c0.739-1.499,1.411-3.017,2.019-4.553
	c0.304-0.768,0.593-1.541,0.866-2.318c1.365-3.885,2.344-7.881,2.995-11.971c0.391-2.454,0.663-4.942,0.829-7.46
	c0.111-1.679,0.175-3.371,0.195-5.076C346.571,296.802,346.241,291.575,345.619,286.263z"/>
<path d="M415.189,83.53L371.555,6.587c-2.455-4.33-7.067-6.845-12.037-6.566l-88.315,4.972c-3.986,0.225-7.368,2.819-8.616,6.61
	c-1.25,3.797-0.068,7.9,3.011,10.454c18.237,15.121,37.575,28.527,57.889,40.177l-4.68,8.076h-70.949
	c-3.05-11.569-11.108-21.624-22.578-26.853c1.37-2.523,3.015-4.557,4.93-6.061c5.912-4.643,12.927-3.163,13.35-3.067
	c3.963,0.965,7.97-1.444,8.973-5.408c1.008-3.985-1.406-8.032-5.391-9.04c-0.57-0.144-14.094-3.425-25.854,5.597
	c-4.582,3.516-8.17,8.309-10.768,14.322h0.001c-0.587-0.033-1.174-0.051-1.761-0.058c-4.425-4.799-9.704-9.377-15.761-13.637
	c-8.575-6.032-34.074-19.783-85.561-17.175c-6.528,0.329-11.733,5.707-11.85,12.24c-0.935,51.538,13.633,76.584,19.94,84.96
	c13.747,18.257,29.609,28.557,47.151,30.662c0.925,6.021,1.617,12.038,2.057,17.954c0.291,3.912,3.555,6.891,7.415,6.891
	c0.185,0,0.372-0.007,0.56-0.021c4.099-0.305,7.174-3.875,6.87-7.974c-0.419-5.625-1.064-11.334-1.895-17.051
	c19.149-2.799,32.481-14.226,33.162-14.821c0.051-0.044,0.091-0.1,0.141-0.145h109.869c-3.312,16.031-5.635,35.005-5.02,55.632
	c0.6,20.063,6.325,41.408,11.863,62.05c10.207,38.043,19.846,73.977-0.807,100.254c-19.646,24.996-44.081,35.737-61.311,40.35
	c-0.001,0-0.001,0-0.002,0l-0.521,0.141c-6.858,1.803-13.956,2.494-20.998,2.084c-0.129-0.008-0.258-0.01-0.387-0.019
	c-0.22-0.014-0.439-0.037-0.659-0.053c-3.363-0.248-6.711-0.742-10.01-1.496c-0.454-0.104-0.906-0.22-1.359-0.334
	c-0.247-0.062-0.495-0.117-0.741-0.182l-0.507-0.137c-0.001,0-0.003,0-0.004-0.001c-17.231-4.612-41.674-15.351-61.326-40.354
	c-20.653-26.276-11.013-62.209-0.807-100.252c4.39-16.362,8.928-33.281,10.889-49.497c0.494-4.081-2.414-7.789-6.495-8.282
	c-4.077-0.495-7.789,2.415-8.282,6.495c-1.835,15.168-6.234,31.567-10.489,47.427c-10.706,39.907-21.777,81.173,3.481,113.308
	c20.357,25.899,45.257,38.235,64.236,44.109c3.775,35.348,5.767,59.152,5.767,69.041c0,2.491-1.458,4.78-3.715,5.833l-53.173,24.81
	c-4.368,2.038-6.691,6.748-5.647,11.454c1.045,4.706,5.14,7.994,9.96,7.994h146.458c4.816,0,8.91-3.282,9.96-7.981
	c1.049-4.697-1.262-9.407-5.618-11.454c-14.251-6.695-40.119-18.835-53.27-24.92c-2.265-1.048-3.728-3.34-3.728-5.839
	c0-9.817,1.991-33.606,5.765-68.937c18.979-5.874,43.88-18.21,64.237-44.11c25.259-32.136,14.188-73.402,3.482-113.31
	c-5.316-19.817-10.814-40.31-11.361-58.636c-1.224-40.998,10.369-75.814,15.41-88.878c1.539-3.989,1.016-8.474-1.402-11.999
	c-2.057-2.999-5.261-4.955-8.803-5.474l0.621-1.072c-0.001-0.001-0.003-0.001-0.004-0.002
	c21.466,11.288,43.945,20.692,67.339,28.093c0.973,0.308,1.963,0.457,2.941,0.457c2.855,0,5.602-1.271,7.476-3.585
	C416.807,91.253,417.158,87.005,415.189,83.53z M184.436,38.281c2.407,1.693,4.658,3.435,6.755,5.215
	c-0.187,0.086-0.376,0.163-0.562,0.252c-6.655,3.18-12.199,7.984-16.226,13.936l0,0l0.791-3.4c0.931-4.004-1.559-8.004-5.564-8.935
	c-4.002-0.933-8.004,1.559-8.934,5.564l-2.102,9.039l-9.86-9.545l2.22-9.549c0.931-4.004-1.559-8.004-5.564-8.935
	c-4.004-0.932-8.005,1.56-8.934,5.564l-0.196,0.844l-15.263-14.776C138.82,23.735,167.165,26.133,184.436,38.281z M165.082,122.102
	c-13.607-1.421-26.278-9.807-37.662-24.926c-12.702-16.871-16.017-45.123-16.775-62.927l15.263,14.776l-0.84,0.224
	c-3.971,1.06-6.331,5.139-5.271,9.11c0.889,3.329,3.897,5.525,7.186,5.525c0.636,0,1.281-0.082,1.925-0.254l9.475-2.529l9.859,9.544
	l-8.966,2.394c-3.971,1.06-6.331,5.139-5.271,9.111c0.889,3.328,3.897,5.525,7.186,5.525c0.636,0,1.281-0.082,1.925-0.254
	l17.601-4.699l7.788,7.539c0-0.001-0.001-0.003-0.001-0.004c0.289,1.191,0.631,2.365,1.023,3.523c0-0.001-0.001-0.002-0.001-0.003
	l-12,3.203c-3.971,1.06-6.331,5.139-5.271,9.11c0.889,3.329,3.897,5.525,7.186,5.525c0.636,0,1.281-0.082,1.925-0.254l15.725-4.198
	c3.528,4.169,7.923,7.671,13.039,10.198C183.696,120.416,174.911,123.13,165.082,122.102z M232.836,89.361
	c-4.785,13.542-19.695,20.666-33.238,15.881c-13.542-4.785-20.666-19.696-15.881-33.238c2.318-6.56,7.052-11.825,13.33-14.824
	c2.904-1.387,5.977-2.203,9.09-2.461c0.073-0.006,0.146-0.01,0.219-0.018c0.632-0.047,1.266-0.079,1.9-0.079
	c2.925,0,5.86,0.499,8.699,1.502C230.498,60.909,237.622,75.819,232.836,89.361z M300.252,497.114H195.908l34.039-15.883
	c7.476-3.488,12.307-11.073,12.307-19.388c0-9.988-1.785-31.982-5.309-65.448c0.082,0.011,0.164,0.018,0.245,0.029
	c0.534,0.071,1.068,0.129,1.603,0.19c0.363,0.041,0.725,0.086,1.088,0.122c0.555,0.055,1.112,0.097,1.668,0.141
	c0.343,0.027,0.686,0.06,1.029,0.082c0.608,0.04,1.217,0.066,1.825,0.092c0.292,0.013,0.584,0.032,0.877,0.042
	c0.9,0.03,1.801,0.045,2.702,0.045s1.803-0.016,2.704-0.045c0.268-0.009,0.535-0.027,0.802-0.039
	c0.635-0.027,1.27-0.054,1.905-0.096c0.313-0.021,0.626-0.051,0.938-0.075c0.589-0.046,1.177-0.091,1.765-0.149
	c0.327-0.032,0.652-0.074,0.978-0.11c0.575-0.064,1.151-0.128,1.725-0.204c0.072-0.01,0.145-0.016,0.217-0.026
	c-3.523,33.451-5.307,55.431-5.307,65.411c0,8.278,4.852,15.873,12.363,19.348C274.408,485.012,287.883,491.315,300.252,497.114z
	 M297.696,106.74h-57.853c2.977-3.598,5.384-7.766,7.027-12.419c1.066-3.016,1.743-6.074,2.082-9.125h61.229L297.696,106.74z
	 M324.394,106.74H314.9l12.484-21.544h3.865C329.133,90.9,326.698,98.184,324.394,106.74z M285.696,19.087l73.488-4.138
	l36.31,64.027C355.82,64.931,318.986,44.84,285.696,19.087z"/>
<g>
</g>
<g>
</g>
<g>
</g>
<g>
</g>
<g>
</g>
<g>
</g>
<g>
</g>
<g>
</g>
<g>
</g>
<g>
</g>
<g>
</g>
<g>
</g>
<g>
</g>
<g>
</g>
<g>
</g>
</svg>
